<svg version="1" xmlns="http://www.w3.org/2000/svg" width="933.333" height="933.333" viewBox="0 0 700.000000 700.000000"><path d="M0 350v350h116.6V446.5c-.1-139.4.2-253.5.5-253.5s3.1 5.5 6.2 12.2c3.1 6.8 8.6 18.8 12.2 26.8 3.7 8 10 21.7 14 30.5s8.7 19.1 10.5 23c1.8 3.8 6.8 14.9 11.2 24.5 7.9 17.3 12.1 26.3 17.1 37 1.4 3 3.6 8 5 11 2.5 5.5 11.6 25.5 28.2 61.5 4.8 10.4 9.4 20.5 10.2 22.4.8 1.8 3.6 8.1 6.4 13.8 2.7 5.8 4.9 10.7 4.9 10.8 0 .2 2 4.5 4.4 9.7 2.4 5.1 7.7 16.7 11.9 25.8 7.2 16 10.2 22.5 16.8 36.7 1.7 3.8 6.4 14 10.4 22.8s11.3 24.8 16.2 35.5c5 10.7 10.1 21.7 11.3 24.5 1.2 2.7 3.7 8.1 5.5 12 1.8 3.8 5.8 12.6 9 19.5 3.1 6.9 7.2 15.8 9.1 19.9 1.9 4.1 5.3 11.6 7.6 16.8 2.3 5.1 4.4 9.3 4.8 9.3.3 0 1.3-1.7 2.2-3.8 1.3-3 15.6-34.2 29-63.2 1.7-3.6 4.9-10.8 7.3-16 2.4-5.2 5.8-12.9 7.8-17 1.9-4.1 4.1-9.1 5-11 .8-1.9 3.3-7.3 5.5-12 3.5-7.5 13.7-29.6 23.2-50.5 1.7-3.9 4.3-9.5 5.7-12.5 3.5-7.6 27.7-60.5 38-83 4.6-10.2 9.7-21.2 11.3-24.5 1.6-3.3 5.3-11.4 8.3-18 16.7-36.5 27.2-59.7 29.9-65.5 1.7-3.6 5.5-11.9 8.5-18.5s6.3-13.6 7.3-15.7c1-2 1.7-3.8 1.4-4.1-.2-.2.2-1 1.1-1.7.8-.7 1.5-1.7 1.5-2.2 0-1.1 38.8-86 39.8-87 .4-.4.7 113.5.7 253v253.7l58.3.3 58.2.2V0H583.3l-6 13.2c-5.5 12.1-92 200.8-98 213.8-1.4 3-3.8 8.2-5.3 11.5-1.6 3.3-6.3 13.6-10.5 23-8 17.5-8.9 19.5-19.5 42.5-9 19.5-11.9 25.8-14.7 32-3.2 7-3.4 7.5-29.3 64-24.5 53.5-28.7 62.6-30 65.5-.5 1.1-3.1 6.7-5.8 12.5-2.6 5.8-6.8 14.9-9.2 20.2-2.5 5.4-4.8 9.8-5.1 9.8-.4 0-1.4-1.7-2.2-3.7-.8-2.1-3.3-7.6-5.5-12.3-3.1-6.7-29-63-45.2-98.5-1.5-3.3-4-8.7-5.5-12-5.7-12.5-20-43.6-27-59-4-8.8-9.4-20.4-11.9-25.8-2.5-5.5-4.6-10-4.6-10.2 0-.1-2-4.5-4.4-9.6-4.8-10.3-8.6-18.7-12.1-26.4-1.3-2.8-3.6-7.9-5.3-11.5-1.6-3.6-15.4-33.7-30.7-67-15.3-33.3-29.1-63.4-30.7-67-1.7-3.6-7.7-16.6-13.3-29-5.7-12.4-11.7-25.7-13.5-29.5-1.8-3.9-5.7-12.4-8.7-19-3-6.6-7.1-15.5-9-19.8L116.7 0H0v350z"/><path d="M164 64.3c0 .5 1.1 3.2 2.4 6 6.7 14.5 24.8 54.1 27.6 60.2 1.8 3.8 7.7 16.9 13.2 29 5.5 12 10.4 22.6 10.9 23.5.5.8 3.2 6.7 6 13s6.6 14.6 8.4 18.5c1.8 3.8 4.2 9 5.3 11.5 4.1 9.1 9 19.6 11.1 24.1l2.1 4.5 20.3-.1 20.3-.1 14.9 32.6c8.2 17.9 17.5 38.1 20.7 44.9 3.2 6.8 5.8 12.5 5.8 12.6 0 .4 4.5 10.3 11.1 24.3 2.7 5.7 4.9 10.8 4.9 11.3 0 2.8 2.1-.1 5.3-7.4 1.9-4.5 5.3-12 7.5-16.7 4.2-9 24.4-53 28.2-61.5 1.2-2.8 3.7-8.2 5.5-12 1.8-3.9 8.1-17.6 14-30.5 5.9-12.9 12-26.4 13.7-30 1.7-3.6 9-19.6 16.3-35.5 13.6-29.7 16.7-36.5 21.6-47C483.2 91.6 495 65.4 495 64.3c0-.4-74.5-.8-165.5-.8s-165.5.4-165.5.8zM562.8 325.7c-4.6 11.9-19.9 49.7-21.3 52.8-.7 1.6-5.9 14.5-11.5 28.5-5.5 14-10.7 26.8-11.5 28.5-.7 1.6-10.1 24.8-20.8 51.5-20.6 51.2-21.5 53.3-22.8 56.5-.4 1.1-3.3 8.3-6.4 16-3.1 7.7-6 14.9-6.5 16-4.1 9.2-23.9 59.8-23.6 60.3.2.4 19.7.7 43.3.7l42.8-.1.5-31.9.5-31.8 20-.1 20-.1.2-126.8c.1-69.7.1-126.7 0-126.7s-1.4 3-2.9 6.7zM175 509v63.6h29c16 .1 29 0 29-.2s-1.4-3.4-3.1-7.1c-1.7-3.8-7.7-16.9-13.4-29.3-5.6-12.4-13.1-28.6-16.5-36-3.4-7.4-7.1-15.5-8.2-18-1.1-2.5-3.3-7.2-4.9-10.5-1.5-3.3-4.8-10.5-7.3-16l-4.6-10V509zM175 668.2V700h58c33.9 0 58-.4 58-.9s-1.9-4.9-4.1-9.8c-5.7-12.2-11.4-24.5-18.4-39.9l-6-13H175v31.8z"/></svg>